<svg width="113" height="99" viewBox="0 0 113 99" fill="none" xmlns="http://www.w3.org/2000/svg">
<path d="M112.5 35.1278V98.7481H26.9527C25.5199 98.7481 24.3608 97.5869 24.3608 96.1562V26.3634C24.3608 24.9305 25.5199 23.7715 26.9527 23.7715H58.3848C59.0706 23.7715 59.7293 24.0431 60.216 24.5298L67.4639 31.7777C67.9506 32.2644 68.6094 32.5359 69.2973 32.5359H109.908C111.339 32.5362 112.5 33.6974 112.5 35.1278Z" fill="#D8F2EF"/>
<path d="M112.501 35.1271V98.7473H103.895V35.1271C103.895 33.6964 102.736 32.5352 101.303 32.5352H109.909C111.34 32.5354 112.501 33.6966 112.501 35.1271Z" fill="#B9DCD6"/>
<path d="M86.0673 66.2465L112.501 98.7476H25.5928C24.8128 98.7476 24.0745 98.3962 23.5823 97.7911L0.586402 69.5167C-0.790844 67.8233 0.414136 65.29 2.5969 65.29H84.0566C84.8368 65.29 85.5753 65.6414 86.0673 66.2465Z" fill="#B9DCD6"/>
<path d="M112.5 98.748H101.354L74.9222 66.2476C74.4287 65.6431 73.6908 65.29 72.9121 65.29H84.0558C84.8367 65.29 85.5745 65.6431 86.0658 66.2476L112.5 98.748Z" fill="#A6CFC9"/>
<path d="M92.8186 91.1246H69.9523C69.2454 91.1246 68.5792 90.7944 68.151 90.2319L62.2909 82.532C61.7237 81.7869 62.2553 80.7148 63.1915 80.7148H86.0578C86.7647 80.7148 87.4309 81.0451 87.8591 81.6076L93.7192 89.3075C94.2863 90.0523 93.755 91.1246 92.8186 91.1246Z" fill="#F8F3F1"/>
<path d="M92.8183 91.1239H85.4616C86.3988 91.1239 86.9307 90.0531 86.3625 89.3063L80.5022 81.6079C80.0744 81.0443 79.4088 80.7139 78.7026 80.7139H86.0571C86.7655 80.7139 87.4311 81.0443 87.8589 81.6079L93.7192 89.3063C94.285 90.0533 93.7554 91.1239 92.8183 91.1239Z" fill="#EFE2DD"/>
<path d="M56.2515 92.822H45.8646C44.927 92.822 44.167 92.0619 44.167 91.1244C44.167 90.1868 44.927 89.4268 45.8646 89.4268H56.2515C57.1891 89.4268 57.9491 90.1868 57.9491 91.1244C57.9491 92.0619 57.1891 92.822 56.2515 92.822Z" fill="#F8F3F1"/>
<path d="M52.4609 87.1911H48.0521C47.1145 87.1911 46.3545 86.4311 46.3545 85.4935C46.3545 84.5559 47.1145 83.7959 48.0521 83.7959H52.4609C53.3985 83.7959 54.1585 84.5559 54.1585 85.4935C54.1587 86.4311 53.3987 87.1911 52.4609 87.1911Z" fill="#F8F3F1"/>
<path d="M51.1063 24.5751C51.1063 11.1424 40.2169 0.25293 26.7843 0.25293C13.3641 0.25293 2.46191 11.1551 2.46191 24.5753C2.46213 38.0081 13.3513 48.8973 26.7841 48.8973H46.7353C48.3483 48.8973 49.1562 46.947 48.0156 45.8064L43.9825 41.7733C48.3841 37.3722 51.1063 31.2915 51.1063 24.5751Z" fill="#FFAF28"/>
<path d="M48.0132 45.8069C49.1541 46.9477 48.3483 48.8967 46.7344 48.8967H38.5312C40.1428 48.8967 40.951 46.9477 39.81 45.8069L37.309 43.3046C36.4771 42.4723 36.4244 41.1438 37.1829 40.2441C40.7508 36.0121 42.902 30.5436 42.902 24.5745C42.902 12.5414 34.1623 2.54755 22.6836 0.598576C23.7943 0.408073 24.9303 0.294694 26.0863 0.261955C39.6885 -0.121248 50.8754 10.5544 51.1017 24.1601C51.2162 31.0399 48.4722 37.2822 43.9817 41.7729L48.0132 45.8069Z" fill="#FFA40A"/>
<path d="M31.585 24.5747L36.1094 20.0503C37.4354 18.7243 37.4354 16.5745 36.1094 15.2487C34.7835 13.9226 32.6335 13.9226 31.3077 15.2487L26.7833 19.7731L22.2591 15.2484C20.9333 13.9224 18.7833 13.9224 17.4574 15.2484C16.1314 16.5743 16.1314 18.7241 17.4574 20.0501L21.9818 24.5745L17.4574 29.0989C16.1314 30.425 16.1314 32.5748 17.4574 33.9006C18.1203 34.5637 18.9894 34.8951 19.8584 34.8951C20.7274 34.8951 21.5962 34.5635 22.2593 33.9006L26.7837 29.3762L31.3081 33.9006C31.9712 34.5637 32.8398 34.8951 33.7091 34.8951C34.5779 34.8951 35.4469 34.5635 36.11 33.9006C37.4361 32.5748 37.4361 30.425 36.11 29.0989L31.585 24.5747Z" fill="white"/>
</svg>
