<svg width="24" height="24" viewBox="0 0 24 24" fill="none" xmlns="http://www.w3.org/2000/svg">
<g clip-path="url(#clip0_304_3431)">
<path d="M21.4219 8.6445H14.0023V0.644531H2.57812C1.15655 0.644531 0 1.80108 0 3.22266V13.0508H6.03722L10.0092 14.753V21.0507H12.5975V23.3551L17.9743 21.0507H24V11.2226C24 9.80105 22.8435 8.6445 21.4219 8.6445ZM10.0078 13.2225L6.32583 11.6445H1.40625V3.22266C1.40625 2.57648 1.93195 2.05078 2.57812 2.05078H12.5961V11.6445H10.0078V13.2225ZM14.0037 21.2225V19.6445H11.4155V13.0508H14.0024V10.0508H21.4219C22.068 10.0508 22.5938 10.5765 22.5938 11.2226V19.6445H17.6856L14.0037 21.2225Z" fill="currentColor"/>
<path d="M16.4168 11.3977L13.9878 17.7754L15.3019 18.2759L15.8794 16.7596H18.1325L18.7043 18.2746L20.02 17.7781L17.6117 11.3965L16.4168 11.3977ZM16.415 15.3534L17.0111 13.7881L17.6019 15.3534H16.415Z" fill="currentColor"/>
<path d="M10.358 9.3619L9.51764 8.52152C9.85162 7.99807 10.0461 7.3774 10.0461 6.71177C10.0461 4.85088 8.53219 3.33691 6.67125 3.33691C4.81031 3.33691 3.29639 4.85084 3.29639 6.71177C3.29639 8.57271 4.81031 10.0866 6.67125 10.0866C7.35872 10.0866 7.99851 9.87954 8.53242 9.52516L9.36356 10.3563L10.358 9.3619ZM6.67129 8.68034C5.58581 8.68034 4.70268 7.79726 4.70268 6.71173C4.70268 5.62624 5.58576 4.74312 6.67129 4.74312C7.75683 4.74312 8.6399 5.6262 8.6399 6.71173C8.6399 6.98618 8.58328 7.2476 8.48137 7.48521L7.65422 6.65806L6.65986 7.65241L7.5029 8.49546C7.25006 8.61382 6.96834 8.68034 6.67129 8.68034Z" fill="currentColor"/>
</g>
<defs>
<clipPath id="clip0_304_3431">
<rect width="24" height="24" fill="white"/>
</clipPath>
</defs>
</svg>
