<svg width="375" height="279" viewBox="0 0 375 279" fill="none" xmlns="http://www.w3.org/2000/svg">
<path d="M186 237C75.4947 237 16.9548 193.066 0 171.099V0H375V171.099C359.043 193.066 296.505 237 186 237Z" fill="#B9DCD6"/>
<path d="M320.5 122C320.5 139.931 305.785 156.302 281.677 168.221C257.601 180.124 224.305 187.5 187.5 187.5C150.695 187.5 117.399 180.124 93.3228 168.221C69.2151 156.302 54.5 139.931 54.5 122C54.5 104.069 69.2151 87.6976 93.3228 75.7792C117.399 63.8763 150.695 56.5 187.5 56.5C224.305 56.5 257.601 63.8763 281.677 75.7792C305.785 87.6976 320.5 104.069 320.5 122Z" stroke="white"/>
<path d="M290.104 156.516C288.316 160.998 285.448 168.243 284.134 171.572C283.747 172.555 284.226 173.665 285.205 174.052L297.449 178.93C298.433 179.322 299.547 178.843 299.938 177.86L305.878 162.943C306.748 160.763 305.682 158.292 303.502 157.422L304.376 155.229L296.357 152.035L295.53 154.11L295.5 154.097C293.342 153.318 290.957 154.389 290.104 156.516Z" fill="#103F37"/>
<path d="M296.244 152.317L295.848 153.314L303.75 156.79L304.264 155.511L296.244 152.317Z" fill="#435C70"/>
<path d="M304.18 156.22L295.848 152.9C295.417 152.731 295.208 152.239 295.378 151.808L296.17 149.82C296.435 149.149 297.192 148.827 297.862 149.093L305.338 152.069C306.004 152.335 306.33 153.092 306.065 153.762L305.273 155.75C305.099 156.181 304.611 156.39 304.18 156.22Z" fill="#435C70"/>
<path d="M296.331 153.109C296.274 153.087 296.579 152.178 297.014 151.086C297.449 149.993 297.85 149.123 297.91 149.145C297.967 149.167 297.662 150.072 297.227 151.168C296.788 152.265 296.388 153.131 296.331 153.109Z" fill="#435C70"/>
<path d="M297.384 153.531C297.327 153.51 297.632 152.604 298.067 151.508C298.502 150.411 298.902 149.546 298.963 149.567C299.02 149.589 298.715 150.494 298.28 151.591C297.845 152.687 297.445 153.553 297.384 153.531Z" fill="#435C70"/>
<path d="M298.441 153.953C298.385 153.931 298.689 153.022 299.124 151.93C299.56 150.838 299.96 149.967 300.021 149.989C300.077 150.011 299.773 150.916 299.338 152.013C298.903 153.105 298.502 153.975 298.441 153.953Z" fill="#435C70"/>
<path d="M299.498 154.371C299.442 154.349 299.746 153.44 300.182 152.348C300.617 151.251 301.017 150.385 301.078 150.407C301.135 150.429 300.83 151.334 300.395 152.43C299.955 153.527 299.555 154.397 299.498 154.371Z" fill="#435C70"/>
<path d="M300.556 154.793C300.5 154.771 300.804 153.866 301.239 152.77C301.674 151.678 302.075 150.807 302.136 150.829C302.192 150.851 301.888 151.756 301.452 152.852C301.013 153.949 300.613 154.815 300.556 154.793Z" fill="#435C70"/>
<path d="M301.613 155.215C301.557 155.194 301.861 154.284 302.296 153.192C302.731 152.096 303.132 151.23 303.193 151.251C303.254 151.273 302.945 152.178 302.51 153.275C302.07 154.367 301.67 155.237 301.613 155.215Z" fill="#435C70"/>
<path d="M302.671 155.633C302.614 155.611 302.919 154.702 303.354 153.61C303.789 152.517 304.189 151.647 304.25 151.669C304.311 151.691 303.998 152.6 303.563 153.697C303.128 154.789 302.727 155.659 302.671 155.633Z" fill="#435C70"/>
<path d="M303.724 156.055C303.667 156.033 303.972 155.124 304.407 154.032C304.842 152.935 305.242 152.069 305.303 152.091C305.364 152.113 305.055 153.018 304.62 154.115C304.185 155.211 303.784 156.077 303.724 156.055Z" fill="#435C70"/>
<path d="M299.346 171.507L289.055 167.408C288.725 167.277 288.564 166.899 288.694 166.568L291.244 160.167C291.375 159.837 291.753 159.676 292.084 159.806L302.375 163.905C302.705 164.036 302.866 164.414 302.736 164.745L300.186 171.145C300.051 171.476 299.677 171.637 299.346 171.507Z" fill="#435C70"/>
<path d="M299.381 170.919C299.381 170.915 299.394 170.871 299.425 170.789C299.459 170.693 299.503 170.576 299.555 170.432C299.681 170.106 299.851 169.653 300.064 169.092C300.517 167.926 301.152 166.285 301.926 164.292L301.979 164.41C299.203 163.313 295.7 161.925 291.901 160.42C291.866 160.433 292.18 160.298 292.049 160.359V160.363L292.045 160.372L292.04 160.385L292.027 160.411L292.006 160.468L291.962 160.576L291.875 160.794L291.701 161.229C291.583 161.521 291.47 161.808 291.357 162.091C291.131 162.661 290.905 163.222 290.683 163.775C290.243 164.875 289.817 165.937 289.412 166.947L289.356 166.812C292.284 168 294.777 169.013 296.561 169.736C297.436 170.097 298.132 170.384 298.633 170.593C298.863 170.689 299.046 170.767 299.19 170.828C299.316 170.88 299.381 170.911 299.381 170.919C299.381 170.928 299.32 170.906 299.198 170.858C299.059 170.806 298.876 170.737 298.654 170.654C298.154 170.462 297.453 170.193 296.583 169.858C294.773 169.153 292.245 168.161 289.273 167.003L289.177 166.964L289.216 166.868C289.617 165.859 290.039 164.793 290.474 163.692C290.691 163.139 290.918 162.578 291.144 162.008C291.257 161.721 291.37 161.434 291.488 161.146L291.662 160.711L291.749 160.494L291.792 160.385L291.814 160.328L291.827 160.302L291.832 160.289L291.836 160.28V160.276C291.705 160.333 292.014 160.198 291.984 160.211C295.778 161.729 299.277 163.135 302.044 164.244L302.127 164.279L302.092 164.362C301.274 166.364 300.599 168.008 300.121 169.179C299.89 169.727 299.707 170.167 299.577 170.484C299.52 170.619 299.472 170.728 299.433 170.819C299.403 170.885 299.385 170.919 299.381 170.919Z" fill="#435C70"/>
<path d="M299.603 165.837C299.581 165.893 298.028 165.332 296.139 164.579C294.251 163.826 292.737 163.169 292.759 163.113C292.78 163.056 294.334 163.618 296.222 164.37C298.111 165.119 299.625 165.776 299.603 165.837Z" fill="#435C70"/>
<path d="M299.137 166.999C299.116 167.055 297.562 166.494 295.674 165.741C293.785 164.989 292.271 164.331 292.293 164.275C292.314 164.218 293.868 164.78 295.756 165.532C297.649 166.281 299.163 166.942 299.137 166.999Z" fill="#435C70"/>
<path d="M298.693 168.117C298.672 168.174 297.118 167.612 295.23 166.859C293.341 166.107 291.827 165.45 291.849 165.393C291.871 165.337 293.424 165.898 295.312 166.651C297.201 167.399 298.715 168.056 298.693 168.117Z" fill="#435C70"/>
<path d="M303.071 157.173C303.049 157.23 301.357 156.612 299.294 155.79C297.232 154.967 295.578 154.254 295.6 154.197C295.622 154.14 297.314 154.758 299.377 155.581C301.439 156.399 303.093 157.112 303.071 157.173Z" fill="#435C70"/>
<path d="M285.139 170.971C285.126 170.967 285.213 170.71 285.383 170.249C285.57 169.757 285.818 169.104 286.123 168.313C286.754 166.681 287.646 164.436 288.638 161.96C289.138 160.724 289.613 159.545 290.048 158.47C290.479 157.4 290.983 156.442 291.636 155.824C292.284 155.202 292.994 154.937 293.485 154.88C293.733 154.845 293.925 154.867 294.055 154.88C294.186 154.902 294.251 154.919 294.247 154.928C294.247 154.954 293.973 154.889 293.498 154.972C293.028 155.054 292.354 155.333 291.749 155.942C291.136 156.547 290.661 157.482 290.239 158.553C289.808 159.632 289.338 160.811 288.842 162.047C287.846 164.523 286.937 166.759 286.262 168.378C285.931 169.157 285.662 169.801 285.457 170.288C285.266 170.732 285.153 170.98 285.139 170.971Z" fill="white"/>
<path d="M298.898 178.847C298.885 178.86 298.716 178.716 298.415 178.455C298.268 178.325 298.085 178.164 297.863 177.99C297.641 177.816 297.402 177.602 297.11 177.398C296.544 176.967 295.844 176.497 295.035 176.023C294.221 175.562 293.298 175.096 292.298 174.691C291.292 174.295 290.305 173.999 289.395 173.778C288.481 173.569 287.65 173.425 286.945 173.351C286.593 173.299 286.275 173.286 285.993 173.264C285.71 173.238 285.47 173.229 285.27 173.221C284.874 173.203 284.652 173.19 284.652 173.173C284.652 173.155 284.87 173.142 285.27 173.134C285.47 173.125 285.714 173.121 285.997 173.138C286.28 173.151 286.606 173.151 286.959 173.195C287.672 173.251 288.516 173.377 289.439 173.577C290.361 173.791 291.362 174.087 292.38 174.487C293.394 174.896 294.325 175.37 295.139 175.849C295.948 176.34 296.649 176.828 297.206 177.276C297.493 177.489 297.728 177.711 297.946 177.898C298.163 178.081 298.337 178.251 298.476 178.394C298.759 178.677 298.907 178.838 298.898 178.847Z" fill="white"/>
<path d="M99.3053 162.227L72.3208 175.216C71.9026 175.418 71.4007 175.24 71.2021 174.822L53.0835 137.191C52.8814 136.773 53.0591 136.271 53.4773 136.072L80.4618 123.084C80.88 122.881 81.3818 123.059 81.5805 123.477L99.6956 161.112C99.8977 161.523 99.7235 162.025 99.3053 162.227Z" fill="#435C70"/>
<path d="M80.0299 124.32L54.7124 136.505L72.2513 172.945L97.5688 160.76L80.0299 124.32Z" fill="#FAFAFA"/>
<path d="M72.7843 128.482C71.7528 127.684 70.3588 127.537 69.1843 128.105L68.4071 126.565C67.8391 125.387 66.4277 124.892 65.2497 125.46C64.0718 126.028 63.5769 127.44 64.145 128.618L64.9221 130.235L64.382 130.506C63.2319 131.081 62.5 132.252 62.4826 133.538L62.4722 134.34L73.4953 129.036L72.7843 128.482ZM66.9016 128.733C66.2673 129.036 65.5076 128.771 65.2009 128.137C64.8977 127.502 65.1626 126.743 65.7969 126.436C66.4311 126.133 67.1909 126.398 67.4976 127.032C67.8008 127.67 67.5324 128.429 66.9016 128.733Z" fill="#435C70"/>
<path d="M66.581 137.149C66.6019 137.194 65.0825 137.972 63.1866 138.885C61.2908 139.798 59.7365 140.502 59.7155 140.456C59.6946 140.411 61.2141 139.634 63.1099 138.721C65.0023 137.804 66.5566 137.104 66.581 137.149Z" fill="#435C70"/>
<path d="M63.5802 140.017C63.6011 140.062 62.8797 140.456 61.9666 140.895C61.0535 141.334 60.2938 141.655 60.2729 141.61C60.252 141.564 60.9734 141.171 61.8865 140.731C62.7995 140.292 63.5593 139.972 63.5802 140.017Z" fill="#435C70"/>
<path d="M81.2597 135.48C81.2806 135.525 77.0219 137.62 71.7456 140.16C66.4693 142.701 62.1758 144.722 62.1549 144.677C62.134 144.631 66.3926 142.537 71.6689 139.996C76.9453 137.456 81.2388 135.434 81.2597 135.48Z" fill="#435C70"/>
<path d="M82.1381 137.303C82.159 137.348 77.9004 139.442 72.624 141.983C67.3477 144.523 63.0542 146.545 63.0333 146.499C63.0124 146.454 67.2711 144.36 72.5474 141.819C77.8202 139.279 82.1172 137.257 82.1381 137.303Z" fill="#435C70"/>
<path d="M83.0161 139.125C83.037 139.17 78.7783 141.265 73.502 143.805C68.2257 146.346 63.9321 148.367 63.9112 148.322C63.8903 148.276 68.149 146.182 73.4253 143.641C78.6981 141.101 82.9917 139.079 83.0161 139.125Z" fill="#435C70"/>
<path d="M83.8911 140.944C83.912 140.989 79.6533 143.084 74.377 145.624C69.1007 148.165 64.8071 150.186 64.7862 150.141C64.7653 150.096 69.024 148.001 74.3003 145.461C79.5766 142.924 83.8702 140.899 83.8911 140.944Z" fill="#435C70"/>
<path d="M84.7695 142.767C84.7904 142.812 80.5317 144.907 75.2554 147.447C69.9791 149.988 65.6855 152.009 65.6646 151.964C65.6437 151.919 69.9024 149.824 75.1787 147.283C80.4515 144.743 84.7486 142.722 84.7695 142.767Z" fill="#435C70"/>
<path d="M85.644 144.59C85.6649 144.635 81.4062 146.729 76.1299 149.27C70.8536 151.811 66.56 153.832 66.5391 153.787C66.5182 153.741 70.7769 151.647 76.0532 149.106C81.3295 146.566 85.6231 144.544 85.644 144.59Z" fill="#435C70"/>
<path d="M76.8827 150.831C76.8897 150.842 76.7607 150.918 76.5237 151.044C76.2519 151.183 75.9139 151.357 75.5131 151.563C74.6558 151.995 73.4674 152.577 72.1466 153.211C70.8257 153.846 69.6304 154.414 68.7591 154.815C68.3479 154.999 68.0029 155.156 67.7241 155.282C67.4766 155.39 67.3372 155.442 67.3338 155.431C67.3268 155.421 67.4557 155.344 67.6927 155.219C67.9646 155.079 68.3026 154.905 68.7034 154.7C69.5607 154.267 70.7491 153.685 72.0699 153.051C73.3872 152.417 74.5861 151.852 75.4573 151.448C75.8686 151.263 76.2136 151.107 76.4924 150.981C76.7398 150.873 76.8792 150.817 76.8827 150.831Z" fill="#435C70"/>
<path d="M79.8972 130.534C79.9181 130.58 79.2525 130.946 78.4057 131.353C77.5588 131.761 76.8583 132.054 76.8374 132.009C76.8165 131.963 77.4821 131.597 78.329 131.19C79.1724 130.782 79.8763 130.489 79.8972 130.534Z" fill="#435C70"/>
<path d="M74.4537 156.888C74.4746 156.933 73.3838 157.505 72.0107 158.164C70.6411 158.822 69.5119 159.321 69.491 159.275C69.4701 159.23 70.5609 158.658 71.934 158C73.3036 157.341 74.4293 156.843 74.4537 156.888Z" fill="#435C70"/>
<path d="M75.4157 158.463C75.4366 158.509 74.3249 159.087 72.9343 159.76C71.5403 160.429 70.3938 160.938 70.3728 160.892C70.3519 160.847 71.4637 160.268 72.8577 159.596C74.2447 158.927 75.3913 158.418 75.4157 158.463Z" fill="#435C70"/>
<path d="M88.725 149.716C88.7459 149.761 88.2266 150.057 87.5645 150.375C86.9023 150.692 86.3482 150.915 86.3273 150.869C86.3064 150.824 86.8256 150.528 87.4878 150.211C88.1464 149.89 88.7006 149.671 88.725 149.716Z" fill="#435C70"/>
<path d="M89.5228 151.162C89.5437 151.207 89.0245 151.504 88.3623 151.821C87.7002 152.138 87.146 152.361 87.1251 152.316C87.1042 152.27 87.6235 151.974 88.2856 151.657C88.9478 151.34 89.5019 151.117 89.5228 151.162Z" fill="#435C70"/>
<path d="M73.9344 161.314C73.9553 161.359 73.4569 161.645 72.8157 161.952C72.1744 162.259 71.6412 162.471 71.6168 162.426C71.5959 162.381 72.0943 162.095 72.7355 161.788C73.3768 161.481 73.9135 161.269 73.9344 161.314Z" fill="#435C70"/>
<path d="M90.4429 152.86C90.4638 152.905 90.0944 153.128 89.6135 153.358C89.1326 153.588 88.7283 153.738 88.7074 153.693C88.6865 153.647 89.0559 153.424 89.5368 153.194C90.0143 152.964 90.4185 152.814 90.4429 152.86Z" fill="#435C70"/>
<path d="M73.3523 166.427C73.3488 166.423 73.3837 166.399 73.4499 166.354C73.5265 166.301 73.6241 166.239 73.7426 166.158C74.0179 165.981 74.3978 165.74 74.8683 165.437C75.8615 164.813 77.252 163.942 78.9144 162.896L78.9945 162.848L79.0294 162.935C79.2106 163.402 79.2454 163.952 79.0747 164.472C78.9144 164.987 78.5171 165.475 77.9595 165.677C77.4158 165.88 76.7467 165.855 76.2344 165.482C75.7151 165.116 75.5025 164.405 75.6559 163.785C75.7151 163.552 75.8266 163.332 75.9904 163.151C76.0288 163.106 76.0741 163.064 76.1194 163.025C76.1647 162.987 76.21 162.949 76.2762 162.917C76.3389 162.886 76.4435 162.876 76.5202 162.924C76.5934 162.97 76.6282 163.032 76.6596 163.085C76.8756 163.489 76.9906 163.935 77.015 164.374C77.0394 164.813 76.9697 165.252 76.8164 165.65C76.6665 166.043 76.4296 166.42 76.0671 166.643C75.7012 166.876 75.2203 166.831 74.8892 166.615C74.5511 166.406 74.3107 166.089 74.1922 165.74C73.9657 165.036 74.1085 164.353 74.2026 163.775L74.2235 163.642L74.3142 163.743C74.7289 164.21 74.924 164.764 74.9798 165.245C75.039 165.733 74.9659 166.155 74.8648 166.483C74.7602 166.81 74.6173 167.037 74.5128 167.183C74.4605 167.256 74.4117 167.305 74.3839 167.34C74.3525 167.375 74.3385 167.392 74.3351 167.389C74.3107 167.375 74.6034 167.106 74.7951 166.462C74.8857 166.141 74.9484 165.73 74.8787 165.259C74.816 164.796 74.6208 164.266 74.2201 163.83L74.3316 163.799C74.241 164.381 74.119 165.047 74.3351 165.695C74.4466 166.009 74.6731 166.298 74.9728 166.483C75.2725 166.667 75.6698 166.702 75.98 166.503C76.2936 166.308 76.5167 165.963 76.6526 165.59C76.7955 165.217 76.8582 164.803 76.8373 164.388C76.8164 163.973 76.7049 163.552 76.5027 163.175C76.4783 163.13 76.4505 163.095 76.4296 163.085C76.4086 163.074 76.3912 163.071 76.3529 163.088C76.2832 163.126 76.1891 163.203 76.1264 163.276C75.987 163.43 75.8859 163.625 75.8336 163.83C75.6942 164.388 75.8859 165.019 76.3389 165.339C76.7885 165.667 77.4019 165.698 77.8967 165.514C78.3986 165.332 78.761 164.897 78.9144 164.419C79.0747 163.942 79.0503 163.426 78.883 162.994L78.998 163.032C77.3217 164.053 75.9207 164.907 74.9171 165.517C74.4326 165.806 74.0493 166.036 73.767 166.204C73.6415 166.273 73.544 166.333 73.4603 166.378C73.3941 166.413 73.3558 166.43 73.3523 166.427Z" fill="#435C70"/>
<path d="M91.45 157.641C91.457 157.644 91.4465 157.759 91.3908 157.968C91.3629 158.073 91.3176 158.202 91.234 158.338C91.1468 158.474 91.0039 158.61 90.7948 158.672C90.6938 158.7 90.5718 158.704 90.4568 158.662C90.3418 158.62 90.2442 158.533 90.1675 158.435C90.0177 158.233 89.9131 158.007 89.7772 157.77C89.5158 157.289 89.2231 156.759 88.9095 156.188L89.0698 156.149C89.0419 156.947 89.0105 157.822 88.9792 158.735C88.9722 158.951 88.9617 159.167 88.9548 159.38L88.9408 159.739L88.784 159.415C88.3065 158.435 87.864 157.522 87.4736 156.724L87.62 156.71C87.3482 157.693 87.2924 158.547 87.2889 159.143C87.2889 159.739 87.3307 160.077 87.3098 160.08C87.3029 160.08 87.282 159.997 87.261 159.84C87.2401 159.68 87.2123 159.446 87.2018 159.146C87.1774 158.547 87.2123 157.679 87.4736 156.672L87.5259 156.47L87.62 156.655C88.0138 157.449 88.4669 158.359 88.9513 159.335L88.7805 159.369C88.7875 159.157 88.7979 158.944 88.8049 158.725C88.8398 157.812 88.8746 156.94 88.9095 156.139L88.9234 155.825L89.0698 156.101C89.373 156.676 89.6552 157.212 89.9131 157.693C90.0421 157.93 90.1466 158.171 90.2756 158.348C90.4045 158.533 90.6032 158.613 90.7809 158.561C91.1503 158.463 91.2793 158.129 91.349 157.941C91.4082 157.749 91.4396 157.637 91.45 157.641Z" fill="#435C70"/>
<path d="M91.4116 156.334C91.4395 156.376 90.0002 157.404 88.1984 158.627C86.3967 159.854 84.9121 160.812 84.8842 160.77C84.8563 160.728 86.2921 159.7 88.0974 158.477C89.8991 157.254 91.3837 156.292 91.4116 156.334Z" fill="#435C70"/>
<path d="M93.1786 156.641C93.2099 156.679 92.1575 157.638 90.8227 158.784C89.4879 159.931 88.3832 160.83 88.3483 160.791C88.317 160.753 89.3694 159.795 90.7042 158.648C92.039 157.502 93.1472 156.602 93.1786 156.641Z" fill="#435C70"/>
<path d="M107.452 68.2255H105.62L101.626 62.6559V59.0008C101.626 59.0008 98.7974 58.8267 99.1281 63.6132C99.4631 68.3996 99.102 67.1812 99.102 67.1812C99.102 67.1812 93.0929 67.203 92.5925 67.7251C92.2313 68.1037 92.0659 74.0736 92.0007 77.311C91.9702 78.9427 92.9667 80.457 94.4853 80.8399C94.6985 80.8964 94.9204 80.9269 95.1336 80.9269C96.6304 80.9269 104.293 79.7085 104.293 79.7085H107.456V68.2255H107.452Z" fill="#103F37"/>
<path d="M112.695 67.2202L111.568 79.7476H108.436V67.4726L112.695 67.2202Z" fill="#103F37"/>
<path d="M271.942 65.8886C271.573 62.9275 269.072 60.1692 266.087 60.1658C264.326 60.1658 262.649 61.0853 261.446 62.3732C260.919 62.9343 260.56 63.3467 260.27 63.7692C260.07 63.2994 259.796 62.8261 259.391 62.1703C258.465 60.6729 257.004 59.4391 255.274 59.0943C252.35 58.5095 249.351 60.7236 248.408 63.5529C247.465 66.3822 248.249 69.5596 249.801 72.1083C251.353 74.6571 254.02 77.9866 258.938 79.6396C262.328 79.2035 266.868 76.1985 268.889 74.0047C270.914 71.8109 272.307 68.8498 271.942 65.8886Z" fill="#E8505B"/>
<path d="M270.863 71.206C270.863 71.2094 270.83 71.2094 270.765 71.206C270.688 71.2026 270.593 71.1958 270.478 71.1891C270.211 71.1654 269.839 71.1384 269.373 71.0978C268.399 71.0099 267.017 70.8815 265.316 70.726L265.391 70.682C264.901 71.9564 264.329 73.4505 263.701 75.0899L263.599 75.3569L263.532 75.0798C263.018 72.9401 262.44 70.5468 261.831 68.0218C261.645 67.2409 261.459 66.4702 261.28 65.7198L261.453 65.7536C260.351 67.268 259.306 68.7046 258.356 70.0094L258.326 70.0499L258.275 70.0432C255.358 69.7389 252.897 69.482 251.146 69.2995C250.291 69.2049 249.612 69.1271 249.128 69.073C248.905 69.046 248.729 69.0223 248.594 69.0054C248.472 68.9885 248.412 68.9784 248.412 68.9716C248.412 68.9682 248.476 68.9682 248.598 68.975C248.733 68.9851 248.912 68.9987 249.135 69.0156C249.622 69.0595 250.301 69.117 251.156 69.1913C252.907 69.357 255.372 69.5902 258.292 69.864L258.211 69.9012C259.158 68.5896 260.195 67.153 261.294 65.6319L261.416 65.4629L261.463 65.6657C261.642 66.4161 261.828 67.1868 262.014 67.9677C262.616 70.4927 263.187 72.8893 263.697 75.0291L263.528 75.0189C264.167 73.3862 264.752 71.8955 265.252 70.6246L265.272 70.5739L265.326 70.5806C267.023 70.7632 268.403 70.9119 269.376 71.0133C269.843 71.0674 270.208 71.1113 270.478 71.1417C270.593 71.1586 270.688 71.1688 270.765 71.1789C270.833 71.1958 270.867 71.2026 270.863 71.206Z" fill="#FAFAFA"/>
<path d="M184.327 52.3521H181.456V65.2275H184.327V52.3521Z" fill="#103F37"/>
<path d="M176.454 57.3528V60.2246H189.33V57.3528H176.454Z" fill="#103F37"/>
<path d="M193.582 58.8181C193.578 58.8181 193.574 58.7572 193.561 58.6441C193.552 58.5179 193.539 58.3482 193.526 58.135C193.517 58.0218 193.508 57.8956 193.5 57.7607C193.487 57.6215 193.456 57.4736 193.43 57.3126C193.378 56.9906 193.33 56.6164 193.204 56.2073C193.012 55.3806 192.625 54.4016 192.012 53.3703C191.394 52.339 190.506 51.2643 189.296 50.3505C188.091 49.4454 186.568 48.6796 184.815 48.3663C183.07 48.0661 181.103 48.1227 179.232 48.8363C178.753 48.9886 178.305 49.2235 177.848 49.4454C177.413 49.7109 176.952 49.9545 176.547 50.2809C176.116 50.5768 175.738 50.9466 175.342 51.3034C174.985 51.6994 174.611 52.0867 174.302 52.5349C173.671 53.4138 173.118 54.3885 172.783 55.4589C172.435 56.525 172.252 57.6563 172.235 58.8094C172.248 59.9625 172.435 61.0938 172.783 62.1599C173.118 63.2347 173.671 64.2093 174.302 65.0883C174.611 65.5365 174.985 65.9237 175.342 66.3197C175.738 66.6765 176.116 67.0464 176.547 67.3466C176.952 67.6773 177.413 67.921 177.848 68.1864C178.309 68.4083 178.758 68.6433 179.232 68.7956C181.107 69.5092 183.074 69.5614 184.815 69.2655C186.568 68.9566 188.091 68.1864 189.296 67.2813C190.506 66.3676 191.394 65.2928 192.012 64.2616C192.625 63.226 193.012 62.2513 193.204 61.4245C193.33 61.0155 193.378 60.6413 193.43 60.3193C193.456 60.1583 193.487 60.0104 193.5 59.8711C193.508 59.7362 193.517 59.61 193.526 59.4969C193.543 59.2837 193.552 59.114 193.561 58.9878C193.574 58.879 193.578 58.8181 193.582 58.8181C193.587 58.8181 193.587 58.879 193.587 58.9922C193.582 59.1183 193.578 59.288 193.574 59.5056C193.569 59.6187 193.565 59.7449 193.561 59.8842C193.548 60.0234 193.521 60.1714 193.5 60.3367C193.456 60.663 193.413 61.0416 193.291 61.455C193.112 62.2904 192.73 63.2825 192.12 64.3355C191.507 65.3842 190.615 66.4807 189.392 67.4162C188.174 68.3431 186.633 69.1306 184.849 69.457C183.078 69.7703 181.072 69.7224 179.158 69.0001C178.671 68.8435 178.214 68.6085 177.744 68.3822C177.296 68.1124 176.83 67.8644 176.412 67.5294C175.973 67.2291 175.585 66.8506 175.181 66.4851C174.815 66.0804 174.432 65.6888 174.115 65.2275C173.466 64.3312 172.905 63.3347 172.561 62.2382C172.209 61.1504 172.017 59.993 172 58.8138C172.017 57.6389 172.205 56.4815 172.561 55.3936C172.905 54.2971 173.466 53.3007 174.115 52.4087C174.428 51.9518 174.815 51.5558 175.181 51.1555C175.585 50.79 175.973 50.4158 176.412 50.1112C176.826 49.7761 177.296 49.5281 177.744 49.2583C178.214 49.0321 178.671 48.7928 179.158 48.6405C181.072 47.9181 183.074 47.8703 184.845 48.1836C186.629 48.5056 188.174 49.2975 189.388 50.2243C190.61 51.1599 191.502 52.2564 192.116 53.305C192.725 54.358 193.108 55.3501 193.286 56.1856C193.404 56.599 193.447 56.9775 193.495 57.3039C193.517 57.4692 193.543 57.6172 193.556 57.7564C193.561 57.8956 193.565 58.0218 193.569 58.135C193.574 58.3525 193.582 58.5222 193.582 58.6484C193.587 58.7615 193.587 58.8181 193.582 58.8181Z" fill="#103F37"/>
<path fill-rule="evenodd" clip-rule="evenodd" d="M200.014 124.075C200.014 126.51 199.122 128.589 197.328 130.314C195.565 132.016 193.464 132.865 191.02 132.865C188.62 132.865 186.528 132.021 184.751 130.335C182.949 128.62 182.052 126.562 182.052 124.166C182.052 121.701 182.927 119.6 184.682 117.871C186.428 116.156 188.542 115.293 191.02 115.293C193.472 115.293 195.578 116.147 197.341 117.845C199.122 119.565 200.014 121.645 200.014 124.075ZM198.312 124.097C198.312 122.104 197.592 120.393 196.158 118.967C194.724 117.542 193.013 116.831 191.016 116.831C189.001 116.831 187.286 117.551 185.865 118.993C184.452 120.436 183.746 122.16 183.746 124.17C183.746 126.124 184.474 127.81 185.921 129.222C187.355 130.626 189.053 131.327 191.012 131.327C193 131.327 194.707 130.621 196.141 129.209C197.588 127.792 198.312 126.094 198.312 124.097Z" fill="white"/>
<path fill-rule="evenodd" clip-rule="evenodd" d="M218.669 128.117C216.945 131.284 214.337 132.865 210.853 132.865C208.401 132.865 206.318 132.016 204.58 130.322C202.843 128.615 201.972 126.536 201.972 124.097C201.972 121.627 202.83 119.543 204.55 117.845C206.257 116.16 208.354 115.315 210.832 115.315C213.514 115.315 215.745 116.325 217.53 118.339C218.024 118.894 218.383 119.427 218.604 119.951H216.702C215.316 117.884 213.345 116.849 210.801 116.849C208.869 116.849 207.193 117.581 205.776 119.041C204.381 120.484 203.679 122.173 203.679 124.114C203.679 126.025 204.394 127.701 205.819 129.14C207.253 130.587 208.921 131.314 210.836 131.314C212.023 131.314 213.141 131.024 214.185 130.439C215.156 129.889 216.022 129.114 216.771 128.113H218.669V128.117ZM238.585 124.075C238.585 126.51 237.692 128.589 235.899 130.314C234.136 132.016 232.034 132.865 229.591 132.865C227.191 132.865 225.098 132.021 223.322 130.335C221.52 128.62 220.623 126.562 220.623 124.166C220.623 121.701 221.498 119.6 223.253 117.871C224.999 116.156 227.113 115.293 229.591 115.293C232.043 115.293 234.149 116.147 235.912 117.845C237.692 119.565 238.585 121.645 238.585 124.075ZM236.882 124.097C236.882 122.104 236.163 120.393 234.729 118.967C233.295 117.542 231.584 116.831 229.587 116.831C227.572 116.831 225.856 117.551 224.435 118.993C223.023 120.436 222.317 122.16 222.317 124.17C222.317 126.124 223.045 127.81 224.492 129.222C225.926 130.626 227.624 131.327 229.582 131.327C231.571 131.327 233.278 130.621 234.712 129.209C236.159 127.792 236.882 126.094 236.882 124.097Z" fill="#FED103"/>
<path fill-rule="evenodd" clip-rule="evenodd" d="M199.976 110.021L200.127 95.4209L200.075 95.3689L195.92 110.021H192.628L188.46 95.3689L188.408 95.4209L188.56 110.021H183.98V90.521H190.388L194.261 103.358H194.313L198.134 90.521H204.555V110.021H199.976ZM208.48 110.021V90.521H219.311V94.8923H213.254V97.925H219.12V102.301H213.254V105.645H219.315V110.017H208.48V110.021ZM239.391 100.221C239.391 106.754 236.042 110.021 229.345 110.021H222.525V90.521H228.985C229.942 90.521 230.787 90.5643 231.506 90.6596C232.347 90.7679 233.105 90.9499 233.781 91.2012C235.301 91.7514 236.571 92.7348 237.593 94.1602C238.789 95.8238 239.391 97.8427 239.391 100.221ZM234.413 100.295C234.413 98.6571 234.036 97.3704 233.283 96.4347C232.459 95.4079 231.255 94.8923 229.669 94.8923H227.508V105.645H229.643C231.272 105.645 232.49 105.147 233.296 104.151C234.041 103.245 234.413 101.958 234.413 100.295Z" fill="white"/>
<path fill-rule="evenodd" clip-rule="evenodd" d="M176.927 120.574C172.231 129.191 165.134 133.502 155.642 133.502C148.97 133.502 143.286 131.193 138.56 126.579C133.82 121.926 131.459 116.277 131.459 109.622C131.459 102.898 133.79 97.223 138.473 92.6047C143.126 88.0168 148.832 85.7163 155.577 85.7163C162.873 85.7163 168.951 88.463 173.812 93.9521C175.155 95.4598 176.134 96.9198 176.736 98.3451H171.555C167.777 92.7131 162.414 89.9014 155.482 89.9014C150.227 89.9014 145.656 91.8899 141.796 95.8757C137.997 99.8008 136.09 104.402 136.09 109.687C136.09 114.89 138.035 119.452 141.917 123.377C145.821 127.324 150.37 129.3 155.573 129.3C158.809 129.3 161.85 128.507 164.692 126.917C167.335 125.418 169.688 123.304 171.741 120.579H176.927V120.574Z" fill="#FED103"/>
<path fill-rule="evenodd" clip-rule="evenodd" d="M243 85.7078C243 86.5569 242.701 87.2804 242.099 87.8826C241.497 88.4848 240.773 88.7881 239.928 88.7881C239.079 88.7881 238.351 88.4892 237.749 87.887C237.147 87.2848 236.844 86.5613 236.844 85.7078C236.844 84.8543 237.147 84.1265 237.749 83.5286C238.351 82.9308 239.079 82.6318 239.928 82.6318C240.778 82.6318 241.505 82.9351 242.103 83.5373C242.705 84.1395 243 84.863 243 85.7078ZM242.558 85.7078C242.558 84.9756 242.303 84.3518 241.796 83.8276C241.28 83.3034 240.656 83.0391 239.924 83.0391C239.188 83.0391 238.568 83.299 238.057 83.8276C237.546 84.3474 237.294 84.9713 237.294 85.7078C237.294 86.4443 237.55 87.0682 238.057 87.588C238.568 88.1123 239.192 88.3765 239.924 88.3765C240.661 88.3765 241.284 88.1123 241.796 87.588C242.303 87.0725 242.558 86.4443 242.558 85.7078ZM240.938 87.5014H241.384C241.332 87.4148 241.297 87.2804 241.284 87.1028L241.267 86.6869C241.254 86.4313 241.215 86.245 241.146 86.128C241.063 85.9807 240.907 85.8724 240.682 85.8118V85.7901C241.115 85.6861 241.336 85.4002 241.336 84.9366C241.336 84.6031 241.211 84.3518 240.964 84.1871C240.752 84.0485 240.474 83.9792 240.128 83.9792H238.611V87.5014H239.053V86.0067H239.928C240.279 86.0067 240.518 86.0631 240.639 86.1714C240.76 86.284 240.825 86.5093 240.834 86.8429L240.843 87.0898C240.847 87.1202 240.847 87.1505 240.851 87.1765C240.864 87.3194 240.89 87.4277 240.938 87.5014ZM240.89 84.9626C240.89 84.7374 240.795 84.5771 240.604 84.4861C240.47 84.4211 240.275 84.3864 240.024 84.3864H239.053V85.6082H239.989C240.249 85.6082 240.448 85.5648 240.6 85.4825C240.791 85.3742 240.89 85.2009 240.89 84.9626Z" fill="white"/>
<path d="M314.482 135.433L310.382 135.73L310.41 136.114L314.51 135.817L314.482 135.433Z" fill="#FFAF28"/>
<path d="M318.169 135.167L316.155 135.313L316.183 135.697L318.197 135.551L318.169 135.167Z" fill="#FFAF28"/>
<path d="M335.847 90.0144L267.968 94.9214C265.029 95.1368 262.799 97.7134 263.014 100.651L265.329 132.655C265.541 135.593 268.118 137.824 271.056 137.608L274.894 137.331C275.474 137.289 275.982 137.727 276.024 138.308L276.455 144.238C276.493 144.753 277.132 144.965 277.47 144.577L283.908 137.135C284.177 136.824 284.562 136.631 284.973 136.601L338.935 132.697C341.873 132.486 344.104 129.909 343.888 126.971L341.573 94.9676C341.362 92.0295 338.785 89.799 335.847 90.0144Z" fill="#FFAF28"/>
<path d="M277.886 109.6L281.551 109.335L281.851 113.488L285.858 113.2L285.558 109.047L289.242 108.781L290.1 120.649L286.415 120.914L286.073 116.111L282.066 116.399L282.412 121.199L278.747 121.464L277.886 109.6Z" fill="white"/>
<path d="M301.61 116.311L295.003 116.788C295.099 117.311 295.272 117.696 295.518 117.938C295.864 118.288 296.291 118.442 296.806 118.407C297.129 118.384 297.433 118.28 297.71 118.096C297.879 117.98 298.06 117.784 298.245 117.511L301.513 117.576C301.079 118.476 300.525 119.138 299.852 119.565C299.179 119.992 298.183 120.249 296.872 120.345C295.733 120.426 294.826 120.334 294.149 120.057C293.472 119.784 292.895 119.311 292.415 118.646C291.934 117.976 291.661 117.173 291.592 116.227C291.496 114.884 291.846 113.765 292.645 112.869C293.445 111.977 294.603 111.473 296.122 111.366C297.352 111.277 298.337 111.393 299.075 111.712C299.814 112.031 300.394 112.535 300.821 113.212C301.244 113.892 301.498 114.8 301.579 115.93L301.61 116.311ZM298.145 114.977C298.033 114.346 297.829 113.9 297.533 113.646C297.237 113.392 296.86 113.281 296.406 113.312C295.883 113.35 295.48 113.588 295.195 114.027C295.014 114.3 294.914 114.696 294.899 115.211L298.145 114.977Z" fill="white"/>
<path d="M302.632 107.808L305.936 107.57L306.793 119.438L303.49 119.676L302.632 107.808Z" fill="white"/>
<path d="M308.151 107.408L311.454 107.17L312.312 119.038L309.008 119.276L308.151 107.408Z" fill="white"/>
<path d="M313.704 114.638C313.608 113.327 313.973 112.215 314.796 111.3C315.619 110.385 316.784 109.873 318.288 109.766C320.011 109.643 321.345 110.046 322.299 110.981C323.064 111.735 323.487 112.7 323.576 113.877C323.672 115.2 323.31 116.315 322.495 117.222C321.68 118.13 320.495 118.641 318.949 118.753C317.569 118.853 316.427 118.584 315.523 117.942C314.412 117.149 313.804 116.049 313.704 114.638ZM317.004 114.392C317.057 115.157 317.254 115.715 317.592 116.057C317.93 116.399 318.33 116.557 318.803 116.523C319.276 116.488 319.653 116.28 319.934 115.896C320.211 115.511 320.322 114.923 320.265 114.123C320.211 113.377 320.019 112.835 319.684 112.492C319.349 112.15 318.957 111.996 318.503 112.027C318.023 112.062 317.638 112.277 317.354 112.669C317.065 113.065 316.95 113.638 317.004 114.392Z" fill="white"/>
<path d="M324.626 106.216L328.149 105.962L328.345 108.666L328.056 114.146L325.88 114.304L324.822 108.92L324.626 106.216ZM325.395 115.169L328.683 114.93L328.895 117.838L325.607 118.076L325.395 115.169Z" fill="white"/>
<rect x="34" y="271" width="304" height="1" fill="#D8F2EF"/>
<g filter="url(#filter0_d_303_1445)">
<path d="M179.757 189.518C179.946 189.219 187.127 192.813 195.195 188.113C203.263 183.413 198.55 232.904 198.55 232.904L197.894 258.592L196.979 270.995H176.878L172.751 231.955C172.751 231.955 176.952 193.946 179.757 189.518Z" fill="#B9DCD6"/>
<path d="M216.058 196.822C212.773 194.007 197.662 188.289 197.662 188.289L195.195 192.684C195.195 192.684 195.994 247.197 195.583 258.426L195.578 270.996H214.025L214.117 242.608C219.45 241.258 223.548 239.019 225.803 236.558C228.359 233.766 228.978 232.195 228.978 228.481C228.973 224.772 219.343 199.637 216.058 196.822Z" fill="white"/>
<path d="M178.098 237.484C178.273 237.203 178.366 237.051 178.366 237.051V188.781C178.366 188.781 163.251 194.499 159.97 197.315C156.685 200.13 147.138 226.159 147.046 229.868C146.685 244.589 159.527 263.163 159.527 263.163C159.527 263.163 159.965 262.978 160.728 262.444C160.478 265.872 160.053 271 160.053 271H180.089C180.089 271 180.154 255.744 180.089 255.048C180.043 254.629 178.967 245.128 178.098 237.484Z" fill="white"/>
<path d="M210.245 224.343L206.867 226.338C206.789 226.384 206.692 226.384 206.613 226.343L203.046 224.343C202.967 224.297 202.917 224.214 202.917 224.122V216.662C202.917 216.524 203.027 216.409 203.171 216.409H210.116C210.254 216.409 210.37 216.519 210.37 216.662V224.127C210.37 224.219 210.324 224.302 210.245 224.343Z" fill="#D5E1ED"/>
<path d="M210.245 224.343L206.867 226.339C206.789 226.385 206.692 226.385 206.613 226.343L203.046 224.343C202.967 224.297 202.917 224.214 202.917 224.122V218.174C202.917 218.036 203.027 217.92 203.171 217.92H210.116C210.254 217.92 210.37 218.031 210.37 218.174V224.132C210.37 224.219 210.324 224.302 210.245 224.343Z" fill="#B8DDFF"/>
<g opacity="0.5">
<g opacity="0.5">
<path opacity="0.5" d="M195.579 258.919V235.337V184.1C195.579 184.1 196.212 185.261 198.536 187.611C201.442 190.546 203.929 194.979 203.929 194.979L198.684 193.965L205.495 200.798L200.37 230.835L196.743 231.375L199.04 238.645L195.579 258.919Z" fill="#8FA7D7"/>
</g>
</g>
<g opacity="0.5">
<path opacity="0.5" d="M176.055 187.56C173.149 190.495 170.663 194.928 170.663 194.928L175.907 193.914L169.096 200.747L180.085 257.394L179.013 184.049C179.013 184.049 178.38 185.21 176.055 187.56Z" fill="#8FA7D7"/>
</g>
<path d="M195.578 255.786L194.437 183.52C194.437 183.52 195.615 184.022 197.94 186.372C200.846 189.307 202.787 194.394 202.787 194.394L197.542 193.38L204.353 200.213L199.474 231.117L196.974 231.692L198.804 235.356L195.578 255.786Z" fill="white"/>
<path d="M180.085 255.044V183.515C180.085 183.515 178.907 184.017 176.582 186.367C173.676 189.302 171.735 194.389 171.735 194.389L176.98 193.375L170.168 200.208L180.085 255.044Z" fill="white"/>
<path d="M188.236 260.882C183.661 260.882 180.163 260.195 180.112 260.186V259.766C180.191 259.78 188.157 261.352 195.578 259.748V260.167C193.069 260.711 190.542 260.882 188.236 260.882Z" fill="#103F37"/>
<path d="M187.229 196.144C183.098 196.144 180.131 194.706 180.085 194.683V194.177C180.154 194.213 187.474 197.678 194.604 193.863L194.613 194.352C192.011 195.743 189.502 196.144 187.229 196.144Z" fill="#103F37"/>
<path opacity="0.5" d="M153.7 229.886C153.7 229.886 159.157 230.932 161.994 233.761C161.99 233.761 154.92 230.236 153.7 229.886Z" fill="#8FA7D7"/>
<path d="M168.163 254.136L169.309 255.518C169.309 255.518 167.008 261.135 164.453 264.097L162.378 261.222C162.378 261.227 165.566 258.803 168.163 254.136Z" fill="#FFCCA9"/>
<path opacity="0.5" d="M160.159 229.886C160.289 230.102 162.123 231.844 162.733 233.54L159.854 230.277L160.159 229.886Z" fill="#8FA7D7"/>
<path opacity="0.5" d="M165.963 210.999C165.949 210.737 164.286 232.646 163.574 235.512L169.096 252.348C169.096 252.348 166.18 258.919 160.723 262.444C160.723 262.444 164.217 261.923 169.715 254.353C169.715 254.353 166.966 262.186 163.08 265.494C163.08 265.494 169.189 261.882 170.981 250.915L165.219 235.517C165.219 235.507 166.227 215.874 165.963 210.999Z" fill="#8FA7D7"/>
<path opacity="0.5" d="M214.113 242.608L211.456 243.373L211.863 245.75L214.113 244.879V242.608Z" fill="#8FA7D7"/>
<path opacity="0.5" d="M213.475 226.172L211.456 209.672L212.084 226.698C205.305 229.264 198.004 232.328 198.004 232.328C198.004 232.328 201.886 231.333 206.645 230.066C211.41 228.799 220.263 223.841 220.263 223.841C218.456 224.371 216.044 225.214 213.475 226.172Z" fill="#8FA7D7"/>
<path opacity="0.1" d="M222.846 210.082C222.846 210.082 227.111 221.537 227.158 228.969C227.176 231.733 225.591 234.019 224.45 234.844C213.337 242.898 199.64 243.183 199.64 243.183C199.64 243.183 199.53 245.026 199.266 245.377C199.266 245.377 223.516 243.773 228.151 233.305C228.151 233.305 229.205 231.637 228.964 229.015C228.516 224.075 225.762 217.136 222.846 210.082Z" fill="#8FA7D7"/>
<path opacity="0.1" d="M155.308 205.876C155.479 205.438 148.395 223.417 148.46 229.886C148.589 243.469 158.649 260.61 160.723 262.439L159.522 263.158C159.522 263.158 146.168 243.377 147.041 229.863C147.217 227.195 147.545 226.016 155.308 205.876Z" fill="#8FA7D7"/>
<path d="M199.331 245.271C200.116 237.305 197.82 232.397 198.088 232.278C200.68 231.112 207.126 228.587 212.316 226.578L212.537 214.847L186.018 213.778L185.417 252.837L211.84 251.763L212.001 243.239C205.472 244.76 199.331 245.271 199.331 245.271Z" fill="#103F37"/>
<path d="M203.628 214.492L203.638 214.018L196.447 213.607L196.434 214.202L203.628 214.492Z" fill="#A1B5BF"/>
<path d="M197.362 214.989C197.362 215.072 197.293 215.137 197.214 215.137C197.131 215.137 197.066 215.068 197.066 214.989C197.066 214.911 197.136 214.842 197.214 214.842C197.297 214.837 197.362 214.907 197.362 214.989Z" fill="#A1B5BF"/>
<path d="M203.065 215.229C203.065 215.28 203.023 215.322 202.972 215.322C202.921 215.322 202.88 215.28 202.88 215.229C202.88 215.179 202.921 215.137 202.972 215.137C203.023 215.137 203.065 215.179 203.065 215.229Z" fill="#A1B5BF"/>
<path d="M198.855 174.101C198.102 176.815 196.766 178.897 196.184 178.736C196.184 178.736 196.591 177.008 197.136 174.244C197.769 171.037 197.857 168.774 199.174 168.894C199.775 168.949 199.613 171.382 198.855 174.101Z" fill="#F0BA92"/>
<g opacity="0.6">
<g opacity="0.6">
<path opacity="0.6" d="M197.847 172.977C197.159 175.709 196.771 178.897 196.188 178.736C196.188 178.736 196.766 176.271 197.311 173.506C197.944 170.3 197.88 169.189 199.192 169.313C199.192 169.309 198.679 169.654 197.847 172.977Z" fill="#D88D64"/>
</g>
</g>
<path d="M175.764 174.101C176.518 176.815 177.774 178.911 178.352 178.755C178.352 178.755 177.737 176.515 177.372 174.161C176.869 170.931 176.762 168.775 175.446 168.894C174.845 168.95 175.011 171.383 175.764 174.101Z" fill="#F0BA92"/>
<g opacity="0.6">
<g opacity="0.6">
<path opacity="0.6" d="M176.37 172.682C177.058 175.414 177.775 178.916 178.352 178.754C178.352 178.754 177.738 175.939 177.192 173.175C176.559 169.968 176.666 169.207 175.349 169.327C175.349 169.332 175.533 169.359 176.37 172.682Z" fill="#D88D64"/>
</g>
</g>
<path d="M194.543 189.877C194.543 189.877 193.545 192.499 187.265 192.499C180.981 192.499 180.084 190.034 180.084 190.034V182.067H194.446L194.543 189.877Z" fill="#F0BA92"/>
<g opacity="0.6">
<g opacity="0.6">
<path opacity="0.6" d="M194.451 184.095C193.153 186.795 188.083 188.919 187.261 188.919C186.443 188.919 182.132 187.288 180.08 184.141V179.985H194.442L194.451 184.095Z" fill="#D88D64"/>
</g>
</g>
<path d="M196.189 178.736C193.795 186.578 187.261 186.707 187.261 186.707C187.261 186.707 180.358 186.689 178.297 178.547C176.938 173.175 173.662 164.95 177.585 158.854C179.808 155.403 195.958 154.025 197.862 158.854C199.765 163.683 197.593 174.138 196.189 178.736Z" fill="#FFCCA9"/>
<path d="M190.773 178.446C191.036 178.667 190.223 181.501 187.265 181.533C184.756 181.561 183.499 178.99 183.726 178.607C184.008 178.133 185.006 178.455 187.164 178.455C189.322 178.451 190.486 178.206 190.773 178.446Z" fill="white"/>
<path d="M187.229 181.68C185.625 181.68 184.451 180.639 183.883 179.658C183.657 179.266 183.463 178.768 183.601 178.533C183.832 178.146 184.368 178.179 185.339 178.238C185.824 178.271 186.425 178.308 187.164 178.308C188.046 178.308 188.749 178.266 189.317 178.234C190.204 178.183 190.653 178.155 190.865 178.335C191.069 178.506 190.911 179.017 190.837 179.229C190.694 179.635 189.839 181.653 187.266 181.68C187.256 181.68 187.242 181.68 187.229 181.68ZM184.516 178.492C184.165 178.492 183.943 178.533 183.855 178.681C183.823 178.75 183.888 179.128 184.23 179.662C184.493 180.068 185.482 181.39 187.229 181.39C187.242 181.39 187.252 181.39 187.266 181.39C188.975 181.372 189.858 180.381 190.237 179.796C190.611 179.211 190.708 178.676 190.671 178.556C190.528 178.464 190.001 178.492 189.34 178.529C188.772 178.561 188.06 178.602 187.169 178.602C186.42 178.602 185.815 178.566 185.325 178.533C185.006 178.51 184.733 178.492 184.516 178.492Z" fill="#D3976E"/>
<path d="M187.27 176.05C186.924 175.801 186.388 175.244 186.697 174.322C186.965 173.53 187.002 172.005 187.002 171.991L187.293 171.995C187.293 172.06 187.256 173.576 186.97 174.414C186.73 175.119 187.09 175.562 187.437 175.81L187.27 176.05Z" fill="#D88D64"/>
<path d="M198.61 234.498L195.902 234.908C192.446 235.208 191.166 232.554 188.111 232.945C185.057 233.337 185.422 234.549 185.422 234.549C183.398 234.604 183.929 237.396 183.929 237.396C182.973 238.815 183.966 240.456 183.966 240.456C183.269 241.437 184.197 242.925 184.197 242.925C184.456 244.543 186.425 245.879 188.541 246.105C188.61 246.114 188.684 246.119 188.758 246.123C188.832 246.128 188.911 246.132 188.985 246.137C189.063 246.137 189.146 246.137 189.225 246.137C189.336 246.137 189.447 246.132 189.562 246.123C189.572 246.123 189.576 246.123 189.585 246.123C189.59 246.123 189.599 246.123 189.604 246.119C189.701 246.109 189.793 246.105 189.89 246.091C192.446 245.745 199.483 242.902 199.483 242.902C199.594 237.424 198.61 234.498 198.61 234.498Z" fill="#FFCCA9"/>
<path d="M185.422 234.544C185.422 234.544 187.174 234.885 188.125 234.949C189.073 235.014 191.277 235.378 191.794 235.502C191.794 235.502 188.943 235.263 188.107 235.212C187.469 235.175 185.159 234.572 185.422 234.544Z" fill="#D88D64"/>
<path d="M185.972 238.17C185.972 238.17 184.683 237.645 184.308 237.133C183.929 236.622 183.916 236.041 183.906 236.078C183.791 236.571 183.934 237.396 183.934 237.396L185.972 238.17Z" fill="#D88D64"/>
<path d="M186.023 241.216C186.023 241.216 184.798 240.677 184.299 240.28C183.74 239.838 183.541 239.152 183.546 239.188C183.611 239.861 183.985 240.442 183.985 240.442L186.023 241.216Z" fill="#D88D64"/>
<path d="M186.254 243.695C186.254 243.695 185.029 243.156 184.53 242.76C183.971 242.318 183.722 241.548 183.726 241.59C183.791 242.262 184.216 242.921 184.216 242.921L186.254 243.695Z" fill="#D88D64"/>
<path d="M185.676 233.83C185.676 233.83 185.366 234.539 185.925 234.636L186.018 234.765L185.422 234.544C185.422 234.544 185.371 234.138 185.676 233.83Z" fill="#D88D64"/>
<g opacity="0.1">
<g opacity="0.1">
<g opacity="0.1">
<path opacity="0.1" d="M175.982 201.369L176.111 193.55L175.455 193.674L175.326 201.415C171.772 202.023 171.061 208.313 170.94 216.339V216.344L170.931 216.791C170.931 218.431 171.804 218.837 172.923 219.012C173.329 219.076 173.755 219.099 174.152 219.113C174.258 219.348 174.489 219.514 174.762 219.514C175.132 219.514 175.432 219.214 175.432 218.846V218.302C175.432 217.933 175.132 217.634 174.762 217.634C174.425 217.634 174.157 217.887 174.11 218.21C173.218 218.164 172.123 217.975 171.768 217.321C171.421 216.68 171.624 215.321 171.652 214.404C171.888 207.387 172.65 202.056 175.917 202.056C179.179 202.056 180.704 207.373 180.94 214.376C180.968 215.256 181.125 216.547 180.792 217.201C180.492 217.795 179.692 218.058 178.893 218.164C178.805 217.851 178.505 217.634 178.167 217.675C177.798 217.722 177.539 218.053 177.581 218.417L177.645 218.961C177.691 219.33 178.024 219.588 178.389 219.546C178.666 219.514 178.888 219.311 178.953 219.058C180.233 218.883 181.679 218.316 181.633 216.643L181.624 215.984C181.628 215.975 181.628 215.966 181.633 215.952C181.485 207.737 179.877 201.447 175.982 201.369Z" fill="#0E3368"/>
</g>
</g>
<g opacity="0.1">
<g opacity="0.1">
<path opacity="0.1" d="M207.806 207.687C207.145 192.191 199.932 188.671 199.627 188.523C199.627 188.523 200.043 188.855 201.854 191.348C203.735 193.947 206.66 198.628 207.057 207.7C205.5 207.917 204.303 209.249 204.303 210.857C204.303 212.621 205.736 214.05 207.506 214.05C209.275 214.05 210.708 212.621 210.708 210.857C210.703 209.207 209.432 207.843 207.806 207.687Z" fill="#0E3368"/>
</g>
</g>
<path opacity="0.1" d="M211.969 243.234L211.84 251.823L187.885 252.735L187.848 255.753L213.476 254.671V242.866L211.969 243.234Z" fill="#0E3368"/>
</g>
<path d="M180.737 215.133C180.575 206.876 179.336 200.609 175.381 200.609C171.361 200.609 170.159 207.083 170.035 215.529V215.534L170.025 215.98C170.025 217.621 170.899 218.026 172.017 218.201C172.424 218.266 172.849 218.289 173.246 218.303C173.352 218.538 173.583 218.704 173.856 218.704C174.226 218.704 174.526 218.404 174.526 218.035V217.492C174.526 217.123 174.226 216.824 173.856 216.824C173.519 216.824 173.251 217.077 173.205 217.4C172.313 217.354 171.218 217.165 170.862 216.51C170.515 215.87 170.719 214.511 170.746 213.594C170.982 206.576 172.128 201.301 175.39 201.301C178.653 201.301 179.794 206.562 180.034 213.566C180.062 214.446 180.219 215.736 179.886 216.391C179.586 216.985 178.787 217.248 177.987 217.354C177.899 217.04 177.599 216.824 177.262 216.865C176.892 216.911 176.633 217.243 176.675 217.607L176.74 218.151C176.786 218.519 177.118 218.777 177.483 218.736C177.761 218.704 177.983 218.501 178.047 218.247C179.327 218.072 180.774 217.506 180.727 215.833L180.718 215.174C180.727 215.151 180.732 215.142 180.737 215.133Z" fill="#383F47"/>
<path d="M175.455 200.951H174.799V193.8L175.455 193.675V200.951Z" fill="#383F47"/>
<path d="M205.394 205.876C205.057 196.591 202.085 191.836 200.177 189.205C198.37 186.708 197.95 186.381 197.95 186.381C198.259 186.524 205.57 190.085 206.147 205.848L205.394 205.876Z" fill="#383F47"/>
<path d="M205.819 206.051C205.31 196.398 203 192.173 201.096 189.542C199.29 187.045 197.945 186.367 197.945 186.367C198.254 186.51 205.574 190.367 206.151 206.134L205.819 206.051Z" fill="#1A2026"/>
<path d="M209.03 208.719C209.03 210.484 207.598 211.913 205.828 211.913C204.058 211.913 202.626 210.484 202.626 208.719C202.626 206.955 204.058 205.526 205.828 205.526C207.598 205.526 209.03 206.955 209.03 208.719Z" fill="#BCBCBC"/>
<path d="M205.828 212C204.012 212 202.533 210.525 202.533 208.714C202.533 206.904 204.012 205.429 205.828 205.429C207.644 205.429 209.123 206.904 209.123 208.714C209.123 210.53 207.644 212 205.828 212ZM205.828 205.618C204.114 205.618 202.718 207.01 202.718 208.719C202.718 210.429 204.114 211.82 205.828 211.82C207.542 211.82 208.938 210.429 208.938 208.719C208.933 207.01 207.542 205.618 205.828 205.618Z" fill="#444444"/>
<g opacity="0.3">
<g opacity="0.3">
<path opacity="0.3" d="M207.413 211.603L206.604 209.908L207.177 208.346L208.943 207.59C208.943 207.594 209.973 209.852 207.413 211.603Z" fill="white"/>
</g>
</g>
<path d="M207.265 208.949C207.265 209.783 206.622 210.456 205.828 210.456C205.033 210.456 204.391 209.783 204.391 208.949C204.391 208.115 205.033 207.442 205.828 207.442C206.622 207.442 207.265 208.115 207.265 208.949Z" fill="#635B53"/>
<g opacity="0.4">
<g opacity="0.4">
<path opacity="0.4" d="M205.32 205.411L205.495 207.346L204.419 208.613L202.501 208.71C202.501 208.719 202.311 206.176 205.32 205.411Z" fill="white"/>
</g>
</g>
<path d="M207.108 208.718C207.108 209.423 206.535 209.995 205.828 209.995C205.121 209.995 204.548 209.423 204.548 208.718C204.548 208.013 205.121 207.442 205.828 207.442C206.535 207.442 207.108 208.013 207.108 208.718Z" fill="#D3D3D3"/>
<path d="M205.828 210.083C205.07 210.083 204.456 209.47 204.456 208.714C204.456 207.959 205.07 207.346 205.828 207.346C206.586 207.346 207.2 207.959 207.2 208.714C207.2 209.47 206.586 210.083 205.828 210.083ZM205.828 207.535C205.172 207.535 204.64 208.064 204.64 208.719C204.64 209.368 205.172 209.903 205.828 209.903C206.484 209.903 207.016 209.373 207.016 208.719C207.011 208.064 206.48 207.535 205.828 207.535Z" fill="#A8A6A0"/>
<path d="M206.327 208.867C206.327 209.143 206.101 209.369 205.824 209.369C205.546 209.369 205.32 209.143 205.32 208.867C205.32 208.59 205.546 208.364 205.824 208.364C206.101 208.364 206.327 208.59 206.327 208.867Z" fill="#BABABA"/>
<path d="M205.824 209.221C206.102 209.221 206.327 208.996 206.327 208.719C206.327 208.442 206.102 208.217 205.824 208.217C205.545 208.217 205.32 208.442 205.32 208.719C205.32 208.996 205.545 209.221 205.824 209.221Z" fill="white"/>
<path d="M173.778 218.386H173.639C173.524 218.386 173.431 218.293 173.431 218.178V217.298C173.431 217.183 173.524 217.091 173.639 217.091H173.778C173.893 217.091 173.986 217.183 173.986 217.298V218.178C173.981 218.293 173.889 218.386 173.778 218.386Z" fill="#AAA9A2"/>
<path d="M177.53 218.377L177.391 218.39C177.276 218.4 177.179 218.317 177.165 218.206L177.082 217.331C177.073 217.215 177.156 217.119 177.267 217.105L177.405 217.091C177.521 217.082 177.618 217.165 177.632 217.275L177.715 218.151C177.729 218.266 177.646 218.367 177.53 218.377Z" fill="#AAA9A2"/>
<g opacity="0.4">
<g opacity="0.4">
<path opacity="0.4" d="M205.5 207.623C204.756 207.867 204.71 208.549 204.71 208.549L205.431 208.599L205.62 208.41L205.5 207.623Z" fill="white"/>
</g>
</g>
<g opacity="0.4">
<g opacity="0.4">
<path opacity="0.4" d="M206.512 209.654C207.122 209.17 206.932 208.516 206.932 208.516L206.239 208.714L206.128 208.958L206.512 209.654Z" fill="white"/>
</g>
</g>
<path d="M176.85 173.286C176.85 173.286 175.469 167.83 175.224 165.075C174.979 162.319 174.688 158.619 177.802 157.357C180.917 156.099 179.96 159.942 179.96 159.942C179.96 159.942 177.497 161.591 177.003 165.729C176.735 167.978 176.85 173.286 176.85 173.286Z" fill="#2A445D"/>
<path d="M197.548 173.203C197.548 173.203 199.082 167.83 199.327 165.075C199.571 162.319 199.863 158.619 196.748 157.357C193.634 156.099 194.59 159.942 194.59 159.942C194.59 159.942 197.053 161.591 197.548 165.729C197.816 167.978 197.548 173.203 197.548 173.203Z" fill="#2A445D"/>
<path d="M195.006 161.269C195.006 161.269 191.212 161.873 188.671 160.679C187.927 160.329 184.313 161.863 182.654 161.555C179.475 160.96 178.08 158.38 178.015 158.117C177.83 157.343 177.072 156.233 179.369 154.514C182.548 152.137 186.471 152.713 187.127 152.017C187.783 151.321 188.444 150.897 189.715 151.022C193.121 151.363 193.287 153.353 195.205 153.653C197.7 154.04 198.541 155.044 198.703 157.131C199.008 161.108 195.006 161.269 195.006 161.269Z" fill="#2A445D"/>
<path d="M187.784 151.487C187.784 151.487 186.716 152.252 184.036 155.362C181.356 158.472 179.961 158.283 179.66 158.334C179.66 158.334 181.975 158.73 184.42 155.523C186.864 152.316 187.784 151.487 187.784 151.487Z" fill="#1F384C"/>
<path d="M191.988 161.168C191.988 161.168 196.461 161.693 198.411 159.366C198.411 159.366 198 161.804 192.09 161.209L191.988 161.168Z" fill="#1F384C"/>
<path d="M184.632 161.232C179.359 161.969 177.844 157.629 177.871 157.707C178.703 160.338 180.801 161.352 182.335 161.748C182.797 161.872 183.255 161.951 183.708 161.983C183.957 162.001 184.11 162.001 184.11 162.001C184.11 162.001 184.114 162.001 184.119 161.997C189.16 162.043 193.24 156.726 193.24 156.726C189.821 159.661 186.785 160.808 184.632 161.232Z" fill="#1F384C"/>
<path d="M193.629 167.807C192.986 167.365 192.252 167.167 191.466 167.282C191.133 167.333 190.861 167.02 190.935 166.692C190.972 166.531 191.092 166.393 191.249 166.342C192.335 166.006 193.425 166.186 194.262 167.047C194.372 167.162 194.409 167.328 194.372 167.485L194.363 167.517C194.289 167.844 193.906 167.996 193.629 167.807Z" fill="#2A445D"/>
<path d="M192.078 172.4C192.671 172.4 193.151 171.792 193.151 171.042C193.151 170.291 192.671 169.683 192.078 169.683C191.486 169.683 191.006 170.291 191.006 171.042C191.006 171.792 191.486 172.4 192.078 172.4Z" fill="#210601"/>
<path d="M183.102 169.684C182.539 169.684 182.077 170.27 182.077 170.982C182.077 171.703 182.539 172.281 183.102 172.281C183.665 172.281 184.127 171.695 184.127 170.982C184.136 170.27 183.674 169.684 183.102 169.684Z" fill="#210601"/>
<path d="M181.092 167.747C181.735 167.305 182.469 167.107 183.255 167.222C183.588 167.273 183.86 166.959 183.786 166.632C183.749 166.471 183.629 166.333 183.472 166.282C182.386 165.946 181.296 166.125 180.459 166.987C180.348 167.102 180.311 167.268 180.348 167.425L180.358 167.457C180.432 167.784 180.815 167.941 181.092 167.747Z" fill="#2A445D"/>
<path d="M170.658 215.436C170.658 215.436 170.034 202.83 174.304 201.194C175.279 200.821 176.194 201.046 176.864 201.397C179.123 202.585 179.687 206.898 179.858 208.861C180.084 211.4 180.431 215.09 179.978 216.123C179.978 216.123 180.135 210.262 179.151 205.981C178.167 201.705 176.309 201.235 175.122 201.3C173.934 201.364 172.552 202.691 171.785 205.285C171.018 207.88 170.658 215.436 170.658 215.436Z" fill="#1A2026"/>
<path d="M170.043 216.367C170.043 216.321 170.339 217.482 171.476 217.74C172.613 218.003 173.204 217.39 173.204 217.39C173.204 217.39 173.126 218.113 173.246 218.298C173.241 218.302 170.145 218.634 170.043 216.367Z" fill="#1A2026"/>
<path d="M180.732 215.51C180.732 215.483 180.778 216.026 180.551 216.478C180.154 217.27 179.798 217.307 179.378 217.528C178.347 218.072 177.987 217.344 177.987 217.344C177.987 217.344 178.125 218.031 178.056 218.233C178.052 218.233 180.963 218.141 180.732 215.51Z" fill="#1A2026"/>
<path d="M174.798 193.799L175.455 193.674L175.413 194.006L174.798 194.126V193.799Z" fill="#1A2026"/>
</g>
<defs>
<filter id="filter0_d_303_1445" x="141" y="143" width="98" height="136" filterUnits="userSpaceOnUse" color-interpolation-filters="sRGB">
<feFlood flood-opacity="0" result="BackgroundImageFix"/>
<feColorMatrix in="SourceAlpha" type="matrix" values="0 0 0 0 0 0 0 0 0 0 0 0 0 0 0 0 0 0 127 0" result="hardAlpha"/>
<feOffset dx="2"/>
<feGaussianBlur stdDeviation="4"/>
<feColorMatrix type="matrix" values="0 0 0 0 0 0 0 0 0 0 0 0 0 0 0 0 0 0 0.15 0"/>
<feBlend mode="normal" in2="BackgroundImageFix" result="effect1_dropShadow_303_1445"/>
<feBlend mode="normal" in="SourceGraphic" in2="effect1_dropShadow_303_1445" result="shape"/>
</filter>
</defs>
</svg>
